<svg fill="#000000" height="200px" width="200px" version="1.1" id="Layer_1" xmlns="http://www.w3.org/2000/svg" xmlns:xlink="http://www.w3.org/1999/xlink" viewBox="0 0 512 512" xml:space="preserve"><g id="SVGRepo_bgCarrier" stroke-width="0"></g><g id="SVGRepo_tracerCarrier" stroke-linecap="round" stroke-linejoin="round"></g><g id="SVGRepo_iconCarrier"> <g> <g> <path d="M220.125,248.451c-4.075-4.088-10.69-4.097-14.777-0.022l-0.172,0.172c-4.087,4.074-4.096,10.69-0.022,14.777 c2.041,2.047,4.72,3.071,7.399,3.071c2.669,0,5.338-1.017,7.377-3.049l0.173-0.172C224.19,259.154,224.2,252.537,220.125,248.451z "></path> </g> </g> <g> <g> <path d="M315.784,152.768c-4.081-4.08-10.698-4.08-14.778,0l-71.766,71.766c-4.08,4.081-4.08,10.698,0,14.778 c2.04,2.041,4.715,3.06,7.388,3.06c2.674,0,5.349-1.02,7.389-3.06l71.766-71.766C319.864,163.465,319.864,156.849,315.784,152.768 z"></path> </g> </g> <g> <g> <path d="M497.046,60.678l-45.725-45.725C441.679,5.31,428.86,0,415.223,0c-13.637,0.001-26.458,5.311-36.099,14.954L60.196,333.88 c0.001,0.001,0.003,0.002,0.005,0.002c-1.074,1.073-1.927,2.384-2.46,3.878L0.607,498.042c-1.355,3.801-0.4,8.044,2.453,10.897 C5.054,510.933,7.725,512,10.451,512c1.175,0,2.361-0.199,3.507-0.607l160.282-57.134c1.493-0.532,2.803-1.384,3.877-2.458 c0.001,0.001,0.002,0.002,0.004,0.004l318.925-318.928C506.689,123.235,512,110.415,512,96.778S506.69,70.321,497.046,60.678z M160.283,437.049L42.701,478.962l-9.662-9.662l41.914-117.581h33.758l-0.001,41.123c0,2.771,1.1,5.428,3.06,7.388 c1.96,1.959,4.617,3.06,7.388,3.06l41.125,0.001V437.049z M181.181,419.191v-26.348c0-5.771-4.678-10.449-10.449-10.449 l-41.125-0.001l0.001-41.123c0-2.771-1.101-5.429-3.06-7.388c-1.959-1.959-4.617-3.06-7.388-3.06H92.811L332.597,91.034 l88.369,88.369L181.181,419.191z M435.744,164.626l-88.369-88.369l18.965-18.965l0.909-0.91l88.369,88.369L435.744,164.626z M482.268,118.101l-11.873,11.873l-88.369-88.369L393.9,29.73c5.696-5.696,13.268-8.833,21.322-8.833s15.626,3.137,21.322,8.833 l45.726,45.726c5.695,5.696,8.831,13.267,8.831,21.322S487.965,112.406,482.268,118.101z"></path> </g> </g> </g></svg>